<svg xmlns="http://www.w3.org/2000/svg" width="800" height="600" style="background-color: #f9f9f9; font-family: Arial, sans-serif;">
  <!-- Background -->
  <rect width="800" height="600" fill="#f9f9f9" />

  <!-- Step Indicator -->
  <!-- Step 1 -->
  <circle cx="100" cy="50" r="20" fill="#007BFF" />
  <text x="100" y="55" font-size="14" text-anchor="middle" fill="#ffffff" font-weight="bold">1</text>
  <text x="100" y="80" font-size="12" text-anchor="middle" fill="#333">Détails</text>
  
  <!-- Connecting Line -->
  <line x1="120" y1="50" x2="220" y2="50" stroke="#ccc" stroke-width="4" />

  <!-- Step 2 -->
  <circle cx="240" cy="50" r="20" fill="#007BFF" />
  <text x="240" y="55" font-size="14" text-anchor="middle" fill="#ffffff" font-weight="bold">2</text>
  <text x="240" y="80" font-size="12" text-anchor="middle" fill="#333">Ressources</text>

  <!-- Connecting Line -->
  <line x1="260" y1="50" x2="360" y2="50" stroke="#ccc" stroke-width="4" />

  <!-- Step 3 -->
  <circle cx="380" cy="50" r="20" fill="#ccc" />
  <text x="380" y="55" font-size="14" text-anchor="middle" fill="#ffffff" font-weight="bold">3</text>
  <text x="380" y="80" font-size="12" text-anchor="middle" fill="#333">Livrables</text>

  <!-- Connecting Line -->
  <line x1="400" y1="50" x2="500" y2="50" stroke="#ccc" stroke-width="4" />

  <!-- Step 4 -->
  <circle cx="520" cy="50" r="20" fill="#ccc" />
  <text x="520" y="55" font-size="14" text-anchor="middle" fill="#ffffff" font-weight="bold">4</text>
  <text x="520" y="80" font-size="12" text-anchor="middle" fill="#333">Finalisation</text>

  <!-- Title -->
  <text x="400" y="120" fill="#333" font-size="20" text-anchor="middle" font-weight="bold">Étape 2 : Gestion des Ressources</text>

  <!-- List Container -->
  <rect x="150" y="150" width="500" height="300" fill="#ffffff" rx="10" ry="10" stroke="#ddd" stroke-width="2" />
  <text x="180" y="180" fill="#333" font-size="16" font-weight="bold">Ressources Existant :</text>
  
  <!-- Resource List -->
  <text x="180" y="210" fill="#555" font-size="14">1. Ressource A - Description A</text>
  <text x="180" y="240" fill="#555" font-size="14">2. Ressource B - Description B</text>
  <text x="180" y="270" fill="#555" font-size="14">3. Ressource C - Description C</text>

  <!-- Add Resource Button -->
  <rect x="300" y="480" width="200" height="40" fill="#007BFF" rx="5" ry="5" />
  <text x="400" y="505" fill="#ffffff" font-size="16" text-anchor="middle" font-weight="bold">Ajouter une Ressource</text>
</svg>
